<svg id="visual" viewBox="0 0 1450 800" width="1450" height="800" xmlns="http://www.w3.org/2000/svg" xmlns:xlink="http://www.w3.org/1999/xlink" version="1.1"><rect x="0" y="0" width="1450" height="800" fill="#FFFFFF"></rect><defs><linearGradient id="grad1_0" x1="44.8%" y1="0%" x2="100%" y2="100%"><stop offset="13.75%" stop-color="#e1d9d1" stop-opacity="1"></stop><stop offset="86.25%" stop-color="#e1d9d1" stop-opacity="1"></stop></linearGradient></defs><defs><linearGradient id="grad1_1" x1="44.8%" y1="0%" x2="100%" y2="100%"><stop offset="13.75%" stop-color="#e1d9d1" stop-opacity="1"></stop><stop offset="86.25%" stop-color="#e8e2dc" stop-opacity="1"></stop></linearGradient></defs><defs><linearGradient id="grad1_2" x1="44.8%" y1="0%" x2="100%" y2="100%"><stop offset="13.75%" stop-color="#f0ece8" stop-opacity="1"></stop><stop offset="86.25%" stop-color="#e8e2dc" stop-opacity="1"></stop></linearGradient></defs><defs><linearGradient id="grad1_3" x1="44.8%" y1="0%" x2="100%" y2="100%"><stop offset="13.75%" stop-color="#f0ece8" stop-opacity="1"></stop><stop offset="86.25%" stop-color="#f7f5f3" stop-opacity="1"></stop></linearGradient></defs><defs><linearGradient id="grad1_4" x1="44.8%" y1="0%" x2="100%" y2="100%"><stop offset="13.75%" stop-color="#ffffff" stop-opacity="1"></stop><stop offset="86.25%" stop-color="#f7f5f3" stop-opacity="1"></stop></linearGradient></defs><defs><linearGradient id="grad2_0" x1="0%" y1="0%" x2="55.2%" y2="100%"><stop offset="13.75%" stop-color="#e1d9d1" stop-opacity="1"></stop><stop offset="86.25%" stop-color="#e1d9d1" stop-opacity="1"></stop></linearGradient></defs><defs><linearGradient id="grad2_1" x1="0%" y1="0%" x2="55.2%" y2="100%"><stop offset="13.75%" stop-color="#e8e2dc" stop-opacity="1"></stop><stop offset="86.25%" stop-color="#e1d9d1" stop-opacity="1"></stop></linearGradient></defs><defs><linearGradient id="grad2_2" x1="0%" y1="0%" x2="55.2%" y2="100%"><stop offset="13.75%" stop-color="#e8e2dc" stop-opacity="1"></stop><stop offset="86.25%" stop-color="#f0ece8" stop-opacity="1"></stop></linearGradient></defs><defs><linearGradient id="grad2_3" x1="0%" y1="0%" x2="55.2%" y2="100%"><stop offset="13.75%" stop-color="#f7f5f3" stop-opacity="1"></stop><stop offset="86.25%" stop-color="#f0ece8" stop-opacity="1"></stop></linearGradient></defs><defs><linearGradient id="grad2_4" x1="0%" y1="0%" x2="55.2%" y2="100%"><stop offset="13.75%" stop-color="#f7f5f3" stop-opacity="1"></stop><stop offset="86.25%" stop-color="#ffffff" stop-opacity="1"></stop></linearGradient></defs><g transform="translate(1450, 0)"><path d="M0 600C-83.9 596.4 -167.8 592.7 -229.6 554.3C-291.4 515.9 -331.1 442.7 -386.1 386.1C-441.1 329.4 -511.5 289.3 -549.7 227.7C-587.9 166.1 -594 83.1 -600 0L0 0Z" fill="#fbfaf9"></path><path d="M0 480C-67.1 477.1 -134.3 474.2 -183.7 443.5C-233.1 412.7 -264.8 354.2 -308.9 308.9C-352.9 263.5 -409.2 231.4 -439.8 182.2C-470.3 132.9 -475.2 66.4 -480 0L0 0Z" fill="#f4f1ee"></path><path d="M0 360C-50.3 357.8 -100.7 355.6 -137.8 332.6C-174.8 309.6 -198.6 265.6 -231.6 231.6C-264.7 197.7 -306.9 173.6 -329.8 136.6C-352.8 99.7 -356.4 49.8 -360 0L0 0Z" fill="#ece7e2"></path><path d="M0 240C-33.6 238.5 -67.1 237.1 -91.8 221.7C-116.6 206.4 -132.4 177.1 -154.4 154.4C-176.4 131.8 -204.6 115.7 -219.9 91.1C-235.2 66.4 -237.6 33.2 -240 0L0 0Z" fill="#e5ded7"></path><path d="M0 120C-16.8 119.3 -33.6 118.5 -45.9 110.9C-58.3 103.2 -66.2 88.5 -77.2 77.2C-88.2 65.9 -102.3 57.9 -109.9 45.5C-117.6 33.2 -118.8 16.6 -120 0L0 0Z" fill="#e1d9d1"></path></g><g transform="translate(0, 800)"><path d="M0 -600C75 -588.7 150.1 -577.4 228.8 -552.5C307.6 -527.6 390.1 -489.2 424.3 -424.3C458.5 -359.4 444.4 -268 465.6 -192.9C486.9 -117.8 543.4 -58.9 600 0L0 0Z" fill="#fbfaf9"></path><path d="M0 -480C60 -470.9 120.1 -461.9 183.1 -442C246.1 -422.1 312.1 -391.3 339.4 -339.4C366.8 -287.5 355.5 -214.4 372.5 -154.3C389.5 -94.2 434.8 -47.1 480 0L0 0Z" fill="#f4f1ee"></path><path d="M0 -360C45 -353.2 90.1 -346.4 137.3 -331.5C184.6 -316.6 234 -293.5 254.6 -254.6C275.1 -215.6 266.6 -160.8 279.4 -115.7C292.1 -70.7 326.1 -35.3 360 0L0 0Z" fill="#ece7e2"></path><path d="M0 -240C30 -235.5 60 -230.9 91.5 -221C123 -211 156 -195.7 169.7 -169.7C183.4 -143.7 177.8 -107.2 186.3 -77.1C194.8 -47.1 217.4 -23.6 240 0L0 0Z" fill="#e5ded7"></path><path d="M0 -120C15 -117.7 30 -115.5 45.8 -110.5C61.5 -105.5 78 -97.8 84.9 -84.9C91.7 -71.9 88.9 -53.6 93.1 -38.6C97.4 -23.6 108.7 -11.8 120 0L0 0Z" fill="#e1d9d1"></path></g></svg>