<svg id="visual" viewBox="0 0 1417 864" width="1417" height="864" xmlns="http://www.w3.org/2000/svg" xmlns:xlink="http://www.w3.org/1999/xlink" version="1.1"><rect x="0" y="0" width="1417" height="864" fill="#FFFFFF"></rect><defs><linearGradient id="grad1_0" x1="39%" y1="0%" x2="100%" y2="100%"><stop offset="17.199074074074073%" stop-color="#e1d9d1" stop-opacity="1"></stop><stop offset="82.80092592592592%" stop-color="#e1d9d1" stop-opacity="1"></stop></linearGradient></defs><defs><linearGradient id="grad1_1" x1="39%" y1="0%" x2="100%" y2="100%"><stop offset="17.199074074074073%" stop-color="#e1d9d1" stop-opacity="1"></stop><stop offset="82.80092592592592%" stop-color="#e7e1da" stop-opacity="1"></stop></linearGradient></defs><defs><linearGradient id="grad1_2" x1="39%" y1="0%" x2="100%" y2="100%"><stop offset="17.199074074074073%" stop-color="#ede8e3" stop-opacity="1"></stop><stop offset="82.80092592592592%" stop-color="#e7e1da" stop-opacity="1"></stop></linearGradient></defs><defs><linearGradient id="grad1_3" x1="39%" y1="0%" x2="100%" y2="100%"><stop offset="17.199074074074073%" stop-color="#ede8e3" stop-opacity="1"></stop><stop offset="82.80092592592592%" stop-color="#f3f0ec" stop-opacity="1"></stop></linearGradient></defs><defs><linearGradient id="grad1_4" x1="39%" y1="0%" x2="100%" y2="100%"><stop offset="17.199074074074073%" stop-color="#f9f7f6" stop-opacity="1"></stop><stop offset="82.80092592592592%" stop-color="#f3f0ec" stop-opacity="1"></stop></linearGradient></defs><defs><linearGradient id="grad1_5" x1="39%" y1="0%" x2="100%" y2="100%"><stop offset="17.199074074074073%" stop-color="#f9f7f6" stop-opacity="1"></stop><stop offset="82.80092592592592%" stop-color="#ffffff" stop-opacity="1"></stop></linearGradient></defs><defs><linearGradient id="grad2_0" x1="0%" y1="0%" x2="61%" y2="100%"><stop offset="17.199074074074073%" stop-color="#e1d9d1" stop-opacity="1"></stop><stop offset="82.80092592592592%" stop-color="#e1d9d1" stop-opacity="1"></stop></linearGradient></defs><defs><linearGradient id="grad2_1" x1="0%" y1="0%" x2="61%" y2="100%"><stop offset="17.199074074074073%" stop-color="#e7e1da" stop-opacity="1"></stop><stop offset="82.80092592592592%" stop-color="#e1d9d1" stop-opacity="1"></stop></linearGradient></defs><defs><linearGradient id="grad2_2" x1="0%" y1="0%" x2="61%" y2="100%"><stop offset="17.199074074074073%" stop-color="#e7e1da" stop-opacity="1"></stop><stop offset="82.80092592592592%" stop-color="#ede8e3" stop-opacity="1"></stop></linearGradient></defs><defs><linearGradient id="grad2_3" x1="0%" y1="0%" x2="61%" y2="100%"><stop offset="17.199074074074073%" stop-color="#f3f0ec" stop-opacity="1"></stop><stop offset="82.80092592592592%" stop-color="#ede8e3" stop-opacity="1"></stop></linearGradient></defs><defs><linearGradient id="grad2_4" x1="0%" y1="0%" x2="61%" y2="100%"><stop offset="17.199074074074073%" stop-color="#f3f0ec" stop-opacity="1"></stop><stop offset="82.80092592592592%" stop-color="#f9f7f6" stop-opacity="1"></stop></linearGradient></defs><defs><linearGradient id="grad2_5" x1="0%" y1="0%" x2="61%" y2="100%"><stop offset="17.199074074074073%" stop-color="#ffffff" stop-opacity="1"></stop><stop offset="82.80092592592592%" stop-color="#f9f7f6" stop-opacity="1"></stop></linearGradient></defs><g transform="translate(1417, 0)"><path d="M0 663.9C-78 637.1 -156 610.3 -241.9 583.9C-327.7 557.5 -421.5 531.4 -469.4 469.4C-517.3 407.5 -519.4 309.6 -544.2 225.4C-568.9 141.2 -616.4 70.6 -663.9 0L0 0Z" fill="#fcfbfa"></path><path d="M0 553.2C-65 530.9 -130 508.6 -201.5 486.6C-273.1 464.6 -351.2 442.8 -391.2 391.2C-431.1 339.5 -432.8 258 -453.5 187.8C-474.1 117.7 -513.7 58.8 -553.2 0L0 0Z" fill="#f6f3f1"></path><path d="M0 442.6C-52 424.7 -104 406.9 -161.2 389.3C-218.5 371.6 -281 354.3 -312.9 312.9C-344.9 271.6 -346.3 206.4 -362.8 150.3C-379.3 94.1 -410.9 47.1 -442.6 0L0 0Z" fill="#f0ece8"></path><path d="M0 331.9C-39 318.5 -78 305.2 -120.9 291.9C-163.9 278.7 -210.7 265.7 -234.7 234.7C-258.7 203.7 -259.7 154.8 -272.1 112.7C-284.5 70.6 -308.2 35.3 -331.9 0L0 0Z" fill="#eae4df"></path><path d="M0 221.3C-26 212.4 -52 203.4 -80.6 194.6C-109.2 185.8 -140.5 177.1 -156.5 156.5C-172.4 135.8 -173.1 103.2 -181.4 75.1C-189.6 47.1 -205.5 23.5 -221.3 0L0 0Z" fill="#e4ddd6"></path><path d="M0 110.6C-13 106.2 -26 101.7 -40.3 97.3C-54.6 92.9 -70.2 88.6 -78.2 78.2C-86.2 67.9 -86.6 51.6 -90.7 37.6C-94.8 23.5 -102.7 11.8 -110.6 0L0 0Z" fill="#e1d9d1"></path></g><g transform="translate(0, 864)"><path d="M0 -663.9C98.9 -666.3 197.8 -668.7 254 -613.3C310.3 -558 323.8 -444.9 380.4 -380.4C437.1 -316 536.9 -300.2 591.3 -244.9C645.7 -189.6 654.8 -94.8 663.9 0L0 0Z" fill="#fcfbfa"></path><path d="M0 -553.2C82.4 -555.2 164.9 -557.2 211.7 -511.1C258.6 -465 269.8 -370.7 317 -317C364.2 -263.3 447.4 -250.2 492.7 -204.1C538.1 -158 545.7 -79 553.2 0L0 0Z" fill="#f6f3f1"></path><path d="M0 -442.6C65.9 -444.2 131.9 -445.8 169.4 -408.9C206.8 -372 215.8 -296.6 253.6 -253.6C291.4 -210.7 357.9 -200.1 394.2 -163.3C430.5 -126.4 436.5 -63.2 442.6 0L0 0Z" fill="#f0ece8"></path><path d="M0 -331.9C49.5 -333.1 98.9 -334.3 127 -306.7C155.1 -279 161.9 -222.4 190.2 -190.2C218.5 -158 268.4 -150.1 295.6 -122.5C322.9 -94.8 327.4 -47.4 331.9 0L0 0Z" fill="#eae4df"></path><path d="M0 -221.3C33 -222.1 65.9 -222.9 84.7 -204.4C103.4 -186 107.9 -148.3 126.8 -126.8C145.7 -105.3 179 -100.1 197.1 -81.6C215.2 -63.2 218.3 -31.6 221.3 0L0 0Z" fill="#e4ddd6"></path><path d="M0 -110.6C16.5 -111 33 -111.4 42.3 -102.2C51.7 -93 54 -74.1 63.4 -63.4C72.8 -52.7 89.5 -50 98.5 -40.8C107.6 -31.6 109.1 -15.8 110.6 0L0 0Z" fill="#e1d9d1"></path></g></svg>