<svg id="visual" viewBox="0 0 900 600" width="900" height="600" xmlns="http://www.w3.org/2000/svg" xmlns:xlink="http://www.w3.org/1999/xlink" version="1.1"><rect x="0" y="0" width="900" height="600" fill="#010101"></rect><path d="M0 452L13.7 449.8C27.3 447.7 54.7 443.3 82 442.5C109.3 441.7 136.7 444.3 163.8 448.3C191 452.3 218 457.7 245.2 462C272.3 466.3 299.7 469.7 327 468.5C354.3 467.3 381.7 461.7 409 457.5C436.3 453.3 463.7 450.7 491 450.7C518.3 450.7 545.7 453.3 573 453.8C600.3 454.3 627.7 452.7 654.8 454.7C682 456.7 709 462.3 736.2 464.5C763.3 466.7 790.7 465.3 818 458.5C845.3 451.7 872.7 439.3 886.3 433.2L900 427L900 601L886.3 601C872.7 601 845.3 601 818 601C790.7 601 763.3 601 736.2 601C709 601 682 601 654.8 601C627.7 601 600.3 601 573 601C545.7 601 518.3 601 491 601C463.7 601 436.3 601 409 601C381.7 601 354.3 601 327 601C299.7 601 272.3 601 245.2 601C218 601 191 601 163.8 601C136.7 601 109.3 601 82 601C54.7 601 27.3 601 13.7 601L0 601Z" fill="#a350a3"></path><path d="M0 461L13.7 462C27.3 463 54.7 465 82 472.2C109.3 479.3 136.7 491.7 163.8 496C191 500.3 218 496.7 245.2 496.8C272.3 497 299.7 501 327 496.3C354.3 491.7 381.7 478.3 409 478C436.3 477.7 463.7 490.3 491 490.5C518.3 490.7 545.7 478.3 573 477.7C600.3 477 627.7 488 654.8 492.5C682 497 709 495 736.2 491.8C763.3 488.7 790.7 484.3 818 479.2C845.3 474 872.7 468 886.3 465L900 462L900 601L886.3 601C872.7 601 845.3 601 818 601C790.7 601 763.3 601 736.2 601C709 601 682 601 654.8 601C627.7 601 600.3 601 573 601C545.7 601 518.3 601 491 601C463.7 601 436.3 601 409 601C381.7 601 354.3 601 327 601C299.7 601 272.3 601 245.2 601C218 601 191 601 163.8 601C136.7 601 109.3 601 82 601C54.7 601 27.3 601 13.7 601L0 601Z" fill="#b24992"></path><path d="M0 524L13.7 524.3C27.3 524.7 54.7 525.3 82 527C109.3 528.7 136.7 531.3 163.8 529C191 526.7 218 519.3 245.2 515.2C272.3 511 299.7 510 327 511.7C354.3 513.3 381.7 517.7 409 517.2C436.3 516.7 463.7 511.3 491 512.8C518.3 514.3 545.7 522.7 573 524.7C600.3 526.7 627.7 522.3 654.8 521.3C682 520.3 709 522.7 736.2 520.7C763.3 518.7 790.7 512.3 818 511.5C845.3 510.7 872.7 515.3 886.3 517.7L900 520L900 601L886.3 601C872.7 601 845.3 601 818 601C790.7 601 763.3 601 736.2 601C709 601 682 601 654.8 601C627.7 601 600.3 601 573 601C545.7 601 518.3 601 491 601C463.7 601 436.3 601 409 601C381.7 601 354.3 601 327 601C299.7 601 272.3 601 245.2 601C218 601 191 601 163.8 601C136.7 601 109.3 601 82 601C54.7 601 27.3 601 13.7 601L0 601Z" fill="#bc4480"></path><path d="M0 541L13.7 544.8C27.3 548.7 54.7 556.3 82 556.5C109.3 556.7 136.7 549.3 163.8 545.7C191 542 218 542 245.2 545C272.3 548 299.7 554 327 555C354.3 556 381.7 552 409 550.5C436.3 549 463.7 550 491 549.5C518.3 549 545.7 547 573 548.2C600.3 549.3 627.7 553.7 654.8 555.2C682 556.7 709 555.3 736.2 556.2C763.3 557 790.7 560 818 560.3C845.3 560.7 872.7 558.3 886.3 557.2L900 556L900 601L886.3 601C872.7 601 845.3 601 818 601C790.7 601 763.3 601 736.2 601C709 601 682 601 654.8 601C627.7 601 600.3 601 573 601C545.7 601 518.3 601 491 601C463.7 601 436.3 601 409 601C381.7 601 354.3 601 327 601C299.7 601 272.3 601 245.2 601C218 601 191 601 163.8 601C136.7 601 109.3 601 82 601C54.7 601 27.3 601 13.7 601L0 601Z" fill="#c1436d"></path></svg>