<svg id="visual" viewBox="0 0 960 540" width="960" height="540" xmlns="http://www.w3.org/2000/svg" xmlns:xlink="http://www.w3.org/1999/xlink" version="1.1"><rect x="0" y="0" width="960" height="540" fill="#010101"></rect><path d="M0 395L26.7 396.5C53.3 398 106.7 401 160 400.8C213.3 400.7 266.7 397.3 320 398.5C373.3 399.7 426.7 405.3 480 410.7C533.3 416 586.7 421 640 413.8C693.3 406.7 746.7 387.3 800 381.3C853.3 375.3 906.7 382.7 933.3 386.3L960 390L960 541L933.3 541C906.7 541 853.3 541 800 541C746.7 541 693.3 541 640 541C586.7 541 533.3 541 480 541C426.7 541 373.3 541 320 541C266.7 541 213.3 541 160 541C106.7 541 53.3 541 26.7 541L0 541Z" fill="#a350a3"></path><path d="M0 449L26.7 449.2C53.3 449.3 106.7 449.7 160 441C213.3 432.3 266.7 414.7 320 412.3C373.3 410 426.7 423 480 432.2C533.3 441.3 586.7 446.7 640 447.3C693.3 448 746.7 444 800 440.3C853.3 436.7 906.7 433.3 933.3 431.7L960 430L960 541L933.3 541C906.7 541 853.3 541 800 541C746.7 541 693.3 541 640 541C586.7 541 533.3 541 480 541C426.7 541 373.3 541 320 541C266.7 541 213.3 541 160 541C106.7 541 53.3 541 26.7 541L0 541Z" fill="#ae4a96"></path><path d="M0 455L26.7 453C53.3 451 106.7 447 160 446C213.3 445 266.7 447 320 450.3C373.3 453.7 426.7 458.3 480 462.5C533.3 466.7 586.7 470.3 640 466.7C693.3 463 746.7 452 800 448.7C853.3 445.3 906.7 449.7 933.3 451.8L960 454L960 541L933.3 541C906.7 541 853.3 541 800 541C746.7 541 693.3 541 640 541C586.7 541 533.3 541 480 541C426.7 541 373.3 541 320 541C266.7 541 213.3 541 160 541C106.7 541 53.3 541 26.7 541L0 541Z" fill="#b74689"></path><path d="M0 480L26.7 480.5C53.3 481 106.7 482 160 478.7C213.3 475.3 266.7 467.7 320 463.2C373.3 458.7 426.7 457.3 480 459.3C533.3 461.3 586.7 466.7 640 473.3C693.3 480 746.7 488 800 491.2C853.3 494.3 906.7 492.7 933.3 491.8L960 491L960 541L933.3 541C906.7 541 853.3 541 800 541C746.7 541 693.3 541 640 541C586.7 541 533.3 541 480 541C426.7 541 373.3 541 320 541C266.7 541 213.3 541 160 541C106.7 541 53.3 541 26.7 541L0 541Z" fill="#bd437b"></path><path d="M0 486L26.7 485.8C53.3 485.7 106.7 485.3 160 489.7C213.3 494 266.7 503 320 505.3C373.3 507.7 426.7 503.3 480 500.5C533.3 497.7 586.7 496.3 640 494.8C693.3 493.3 746.7 491.7 800 491.7C853.3 491.7 906.7 493.3 933.3 494.2L960 495L960 541L933.3 541C906.7 541 853.3 541 800 541C746.7 541 693.3 541 640 541C586.7 541 533.3 541 480 541C426.7 541 373.3 541 320 541C266.7 541 213.3 541 160 541C106.7 541 53.3 541 26.7 541L0 541Z" fill="#c1436d"></path></svg>