<svg width="1450" height="800" xmlns="http://www.w3.org/2000/svg" version="1.1">










 <g>
  <title>Layer 1</title>
  <rect id="svg_1" fill="#FFFFFF" height="800" width="1450" y="0" x="0"/>
  <g id="svg_2">
   <path id="svg_3" fill="#fbfaf9" d="m850,800c3.6,-83.9 7.3,-167.8 45.7,-229.6c38.4,-61.8 111.6,-101.5 168.2,-156.5c56.7,-55 96.8,-125.4 158.4,-163.6c61.6,-38.2 144.6,-44.3 227.7,-50.3l0,600l-600,0z"/>
   <path id="svg_4" fill="#f4f1ee" d="m970,800c2.9,-67.1 5.8,-134.3 36.5,-183.7c30.8,-49.4 89.3,-81.1 134.6,-125.2c45.4,-44 77.5,-100.3 126.7,-130.9c49.3,-30.5 115.8,-35.4 182.2,-40.2l0,480l-480,0z"/>
   <path id="svg_5" fill="#ece7e2" d="m1090,800c2.2,-50.3 4.4,-100.7 27.4,-137.8c23,-37 67,-60.8 101,-93.8c33.9,-33.1 58,-75.3 95,-98.2c36.9,-23 86.8,-26.6 136.6,-30.2l0,360l-360,0z"/>
   <path id="svg_6" fill="#e5ded7" d="m1210,800c1.5,-33.6 2.9,-67.1 18.3,-91.8c15.3,-24.8 44.6,-40.6 67.3,-62.6c22.6,-22 38.7,-50.2 63.3,-65.5c24.7,-15.3 57.9,-17.7 91.1,-20.1l0,240l-240,0z"/>
   <path id="svg_7" fill="#e1d9d1" d="m1330,800c0.7,-16.8 1.5,-33.6 9.1,-45.9c7.7,-12.4 22.4,-20.3 33.7,-31.3c11.3,-11 19.3,-25.1 31.7,-32.7c12.3,-7.7 28.9,-8.9 45.5,-10.1l0,120l-120,0z"/>
  </g>
 </g>
</svg>