<svg id="visual" viewBox="0 0 1417 864" width="1417" height="864" xmlns="http://www.w3.org/2000/svg" xmlns:xlink="http://www.w3.org/1999/xlink" version="1.1"><rect x="0" y="0" width="1417" height="864" fill="#FFFFFF"></rect><defs><linearGradient id="grad1_0" x1="39%" y1="100%" x2="100%" y2="0%"><stop offset="17.199074074074073%" stop-color="#e1d9d1" stop-opacity="1"></stop><stop offset="82.80092592592592%" stop-color="#e1d9d1" stop-opacity="1"></stop></linearGradient></defs><defs><linearGradient id="grad1_1" x1="39%" y1="100%" x2="100%" y2="0%"><stop offset="17.199074074074073%" stop-color="#e1d9d1" stop-opacity="1"></stop><stop offset="82.80092592592592%" stop-color="#e7e1da" stop-opacity="1"></stop></linearGradient></defs><defs><linearGradient id="grad1_2" x1="39%" y1="100%" x2="100%" y2="0%"><stop offset="17.199074074074073%" stop-color="#ede8e3" stop-opacity="1"></stop><stop offset="82.80092592592592%" stop-color="#e7e1da" stop-opacity="1"></stop></linearGradient></defs><defs><linearGradient id="grad1_3" x1="39%" y1="100%" x2="100%" y2="0%"><stop offset="17.199074074074073%" stop-color="#ede8e3" stop-opacity="1"></stop><stop offset="82.80092592592592%" stop-color="#f3f0ec" stop-opacity="1"></stop></linearGradient></defs><defs><linearGradient id="grad1_4" x1="39%" y1="100%" x2="100%" y2="0%"><stop offset="17.199074074074073%" stop-color="#f9f7f6" stop-opacity="1"></stop><stop offset="82.80092592592592%" stop-color="#f3f0ec" stop-opacity="1"></stop></linearGradient></defs><defs><linearGradient id="grad1_5" x1="39%" y1="100%" x2="100%" y2="0%"><stop offset="17.199074074074073%" stop-color="#f9f7f6" stop-opacity="1"></stop><stop offset="82.80092592592592%" stop-color="#ffffff" stop-opacity="1"></stop></linearGradient></defs><defs><linearGradient id="grad2_0" x1="0%" y1="100%" x2="61%" y2="0%"><stop offset="17.199074074074073%" stop-color="#e1d9d1" stop-opacity="1"></stop><stop offset="82.80092592592592%" stop-color="#e1d9d1" stop-opacity="1"></stop></linearGradient></defs><defs><linearGradient id="grad2_1" x1="0%" y1="100%" x2="61%" y2="0%"><stop offset="17.199074074074073%" stop-color="#e7e1da" stop-opacity="1"></stop><stop offset="82.80092592592592%" stop-color="#e1d9d1" stop-opacity="1"></stop></linearGradient></defs><defs><linearGradient id="grad2_2" x1="0%" y1="100%" x2="61%" y2="0%"><stop offset="17.199074074074073%" stop-color="#e7e1da" stop-opacity="1"></stop><stop offset="82.80092592592592%" stop-color="#ede8e3" stop-opacity="1"></stop></linearGradient></defs><defs><linearGradient id="grad2_3" x1="0%" y1="100%" x2="61%" y2="0%"><stop offset="17.199074074074073%" stop-color="#f3f0ec" stop-opacity="1"></stop><stop offset="82.80092592592592%" stop-color="#ede8e3" stop-opacity="1"></stop></linearGradient></defs><defs><linearGradient id="grad2_4" x1="0%" y1="100%" x2="61%" y2="0%"><stop offset="17.199074074074073%" stop-color="#f3f0ec" stop-opacity="1"></stop><stop offset="82.80092592592592%" stop-color="#f9f7f6" stop-opacity="1"></stop></linearGradient></defs><defs><linearGradient id="grad2_5" x1="0%" y1="100%" x2="61%" y2="0%"><stop offset="17.199074074074073%" stop-color="#ffffff" stop-opacity="1"></stop><stop offset="82.80092592592592%" stop-color="#f9f7f6" stop-opacity="1"></stop></linearGradient></defs><g transform="translate(1417, 864)"><path d="M-663.9 0C-637.1 -78 -610.3 -156 -583.9 -241.9C-557.5 -327.7 -531.4 -421.5 -469.4 -469.4C-407.5 -517.3 -309.6 -519.4 -225.4 -544.2C-141.2 -568.9 -70.6 -616.4 0 -663.9L0 0Z" fill="#fcfbfa"></path><path d="M-553.2 0C-530.9 -65 -508.6 -130 -486.6 -201.5C-464.6 -273.1 -442.8 -351.2 -391.2 -391.2C-339.5 -431.1 -258 -432.8 -187.8 -453.5C-117.7 -474.1 -58.8 -513.7 0 -553.2L0 0Z" fill="#f6f3f1"></path><path d="M-442.6 0C-424.7 -52 -406.9 -104 -389.3 -161.2C-371.6 -218.5 -354.3 -281 -312.9 -312.9C-271.6 -344.9 -206.4 -346.3 -150.3 -362.8C-94.1 -379.3 -47.1 -410.9 0 -442.6L0 0Z" fill="#f0ece8"></path><path d="M-331.9 0C-318.5 -39 -305.2 -78 -291.9 -120.9C-278.7 -163.9 -265.7 -210.7 -234.7 -234.7C-203.7 -258.7 -154.8 -259.7 -112.7 -272.1C-70.6 -284.5 -35.3 -308.2 0 -331.9L0 0Z" fill="#eae4df"></path><path d="M-221.3 0C-212.4 -26 -203.4 -52 -194.6 -80.6C-185.8 -109.2 -177.1 -140.5 -156.5 -156.5C-135.8 -172.4 -103.2 -173.1 -75.1 -181.4C-47.1 -189.6 -23.5 -205.5 0 -221.3L0 0Z" fill="#e4ddd6"></path><path d="M-110.6 0C-106.2 -13 -101.7 -26 -97.3 -40.3C-92.9 -54.6 -88.6 -70.2 -78.2 -78.2C-67.9 -86.2 -51.6 -86.6 -37.6 -90.7C-23.5 -94.8 -11.8 -102.7 0 -110.6L0 0Z" fill="#e1d9d1"></path></g><g transform="translate(0, 0)"><path d="M663.9 0C666.3 98.9 668.7 197.8 613.3 254C558 310.3 444.9 323.8 380.4 380.4C316 437.1 300.2 536.9 244.9 591.3C189.6 645.7 94.8 654.8 0 663.9L0 0Z" fill="#fcfbfa"></path><path d="M553.2 0C555.2 82.4 557.2 164.9 511.1 211.7C465 258.6 370.7 269.8 317 317C263.3 364.2 250.2 447.4 204.1 492.7C158 538.1 79 545.7 0 553.2L0 0Z" fill="#f6f3f1"></path><path d="M442.6 0C444.2 65.9 445.8 131.9 408.9 169.4C372 206.8 296.6 215.8 253.6 253.6C210.7 291.4 200.1 357.9 163.3 394.2C126.4 430.5 63.2 436.5 0 442.6L0 0Z" fill="#f0ece8"></path><path d="M331.9 0C333.1 49.5 334.3 98.9 306.7 127C279 155.1 222.4 161.9 190.2 190.2C158 218.5 150.1 268.4 122.5 295.6C94.8 322.9 47.4 327.4 0 331.9L0 0Z" fill="#eae4df"></path><path d="M221.3 0C222.1 33 222.9 65.9 204.4 84.7C186 103.4 148.3 107.9 126.8 126.8C105.3 145.7 100.1 179 81.6 197.1C63.2 215.2 31.6 218.3 0 221.3L0 0Z" fill="#e4ddd6"></path><path d="M110.6 0C111 16.5 111.4 33 102.2 42.3C93 51.7 74.1 54 63.4 63.4C52.7 72.8 50 89.5 40.8 98.5C31.6 107.6 15.8 109.1 0 110.6L0 0Z" fill="#e1d9d1"></path></g></svg>